/* XPM */
static char * new_grass_xpm[] = {
"64 64 73 1",
" 	c #37946E",
".	c #39956D",
"+	c #97E351",
"@	c #98E450",
"#	c #97E251",
"$	c #99E550",
"%	c #3B976D",
"&	c #3C976D",
"*	c #3B966D",
"=	c #3D986D",
"-	c #3D986C",
";	c #3A956D",
">	c #96E251",
",	c #97E350",
"'	c #95E151",
")	c #3A966D",
"!	c #3A956E",
"~	c #3D976D",
"{	c #38956D",
"]	c #97E450",
"^	c #98E44F",
"/	c #6CBF31",
"(	c #6BBE30",
"_	c #69BD31",
":	c #68BC32",
"<	c #68BC33",
"[	c #6BBF31",
"}	c #97E250",
"|	c #3B7153",
"1	c #376C54",
"2	c #37936D",
"3	c #6ABE30",
"4	c #69BD32",
"5	c #3A6F54",
"6	c #356A54",
"7	c #3C966D",
"8	c #95E150",
"9	c #97E24F",
"0	c #96E150",
"a	c #356B54",
"b	c #396F54",
"c	c #3D7254",
"d	c #98E350",
"e	c #97E34F",
"f	c #69BD30",
"g	c #396E54",
"h	c #37926D",
"i	c #386D54",
"j	c #366C54",
"k	c #96E14F",
"l	c #6ABD32",
"m	c #69BC31",
"n	c #38946D",
"o	c #38946C",
"p	c #68BC34",
"q	c #366D54",
"r	c #356B55",
"s	c #356C55",
"t	c #376D53",
"u	c #386F53",
"v	c #69BC30",
"w	c #376E54",
"x	c #376C53",
"y	c #37946C",
"z	c #68BB32",
"A	c #6ABD31",
"B	c #68BB31",
"C	c #97E44F",
"D	c #96E350",
"E	c #6BBE31",
"F	c #6ABE33",
"G	c #96E250",
"H	c #39956C",
"                                                                ",
"                                                                ",
"                                                                ",
"                                                                ",
"                                                                ",
"                                                                ",
"                                                                ",
"                                                                ",
"                                                                ",
"                                                                ",
"                                                                ",
"                                                                ",
"                                                                ",
"                                                                ",
"                                                                ",
"                                        ........                ",
"                                       .+@@@@@@#.               ",
"                                       .@$$$$$$@.               ",
"                                       .@$$$$$$@.               ",
"            %&&&&&&*                *&&=@$$$$$$@-&&%            ",
"           ;>,,,,,,')              *>,,,$$$$$$$$,,,>;           ",
"           !@$$$$$$+*              *,$$$$$$$$$$$$$$@!           ",
"           !@$$$$$$+*              *,$$$$$$$$$$$$$$@!           ",
"        ***~@$$$@@@,&{{{{{{{    {{{&,@@@$$$$@@@@@@@,!           ",
"       &>]]]$$$^/(((_______:{  .<___((([@$$}|11111112           ",
"       &+$$$$$$^[3333333333_{  .4333333(@$$}566666662           ",
"       &+$$$$$$^[3333333333_{  .4333333(@$$}566666662           ",
"       78,,,$$$^/(((3333333_{  .4333333(9,,05666aaaa2           ",
"       2b55cd$$$^^^e[333333_{  .4333333f|55g666ah222            ",
"       2a66id$$$$$$^[333333_{  .4333333fj666666a2               ",
"       2a66id$$$$$$^[333333_{  .4333333fj666666a2               ",
"       2a66i0}}}}}}klmmm333_n22op444444<qrrrrrrs2               ",
"       2a666bbbbbbbbtttuf33vwrrso.......22222222                ",
"       2a66666666666666jf33v166r2                               ",
"       2a66666666666666jf33v166r2                               ",
"       2saaaaaaaaaaaaaaq:44<x66rn{{{{{{.****                    ",
"        2222222222222222{{{ya66tz______A,,,>*                   ",
"                           2a66tm333333(@$$,&                   ",
"                           2a66tm333333(@$$,&                   ",
"                           2r66tBfff3333C^^D=...                ",
"                            222hqjjuf333E((/,@@+.               ",
"                               2r661v333333[^$$@.               ",
"                               2r661v333333[^$$@.               ",
"                               2srrqBmmm444FG,,>.               ",
"                                222httttH...*&&7                ",
"                                   2a6662                       ",
"                                   2a6662                       ",
"                                   2saar2                       ",
"                                    2222                        ",
"                                                                ",
"                                                                ",
"                                                                ",
"                                                                ",
"                                                                ",
"                                                                ",
"                                                                ",
"                                                                ",
"                                                                ",
"                                                                ",
"                                                                ",
"                                                                ",
"                                                                ",
"                                                                ",
"                                                                "};
